<svg xmlns="http://www.w3.org/2000/svg" viewBox="0 0 289.58 95.98"><title>webflow-arabic-logo</title><g id="Layer_2" data-name="Layer 2"><g id="Layer_1-2" data-name="Layer 1"><path d="M109,28.93a24,24,0,0,0-17.26-7.17c-7.75,0-11.28,5.15-11.28,9.93a13.21,13.21,0,0,0,4.66,10.17c5.58,5,15,6.62,21.8,6.08.92,4.07.52,7.37-1.18,9.58s-4.67,3.33-8.81,3.33h-.86c-9.78,0-18.72-11-21.71-21.65C74.27,38.85,63.94,3.51,61.5.6L61,0l-.7.35c-4.4,2.2-6.18,8.08-5.4,10.16A303.31,303.31,0,0,1,65.42,45.83c.71,3.23.52,9.56-2.15,12.88a5.39,5.39,0,0,1-4.46,2.14H46.39c-.57-1.76-1.14-3.5-1.69-5.18C43.83,53,43,50.51,42.39,48.49c-4-12.81-9.61-21.16-16.7-24.82a19.36,19.36,0,0,0-15.1-1C4.25,24.72-.11,32.9,0,42.56c.19,14.83,10.44,24.8,25.49,24.8H37c.66,2.09,2.2,7.15,2.43,8.37.82,5.39.07,9.63-2.18,12.25a8.55,8.55,0,0,1-6.72,2.83A24.75,24.75,0,0,1,18,87a1.36,1.36,0,0,0-1.8.69,1.9,1.9,0,0,0,.75,2.6C22,93.28,27.13,96,34,96c5,0,8.89-1.46,11.62-4.34,3.21-3.4,4.65-8.63,4.26-15.55a52.1,52.1,0,0,0-1.62-8.73H65l-.14-.16c6.11-.91,10.09-5.88,10.89-13.61,5.7,9,13.57,13.6,23.45,13.77h1.69c.1,0,.38,0,.8,0,.25,0,.55,0,.88,0h.56l0,0a16.33,16.33,0,0,0,10.11-4.16c3-2.92,4.42-7.16,4.18-12.6C116.92,41.55,114,34.07,109,28.93ZM93.26,40a11,11,0,0,1-3.87-8.36c0-1.39.28-5.92,3.9-5.92h.41l.08-.08c4.59.44,9.82,8.38,12.3,18.63A18.56,18.56,0,0,1,93.26,40ZM25.68,60.85c-9.24,0-14.23-5.86-15.23-17.91-.22-2.63-1-15.82,5-16.89a6.93,6.93,0,0,1,1.28-.12c6,0,11,8.14,16,26.05.17.52,1.7,6.36,2.31,8.87ZM88.49,16.56A5.41,5.41,0,0,0,94,11.14a5.21,5.21,0,0,0-5.42-5.23h-.09a5.63,5.63,0,0,0-5.71,5.52C82.78,14.5,85.73,16.56,88.49,16.56Zm84.7,55.62h-.1a5.62,5.62,0,0,0-5.71,5.51c0,3.07,3,5.13,5.71,5.13a5.4,5.4,0,0,0,5.51-5.41A5.2,5.2,0,0,0,173.19,72.18ZM289.52,76.1c-.31-5.71-3.36-14.93-5.82-22.34-.65-1.95-1.24-3.75-1.71-5.27-4-12.81-9.62-21.16-16.7-24.82a19.38,19.38,0,0,0-15.11-1c-6.34,2-10.69,10.23-10.58,19.89.19,15,10.08,25.47,24,25.47,6.15,0,9.1-2.73,11.19-6,.55,1.9,1.19,3.78,1.81,5.62A54.14,54.14,0,0,1,279,75.73c.82,5.39.06,9.63-2.19,12.25a8.53,8.53,0,0,1-6.72,2.83A24.81,24.81,0,0,1,257.56,87a1.36,1.36,0,0,0-1.79.69,1.9,1.9,0,0,0,.74,2.6c5.08,3,10.22,5.71,17.12,5.71,5,0,8.9-1.46,11.62-4.34C288.47,88.24,289.9,83,289.52,76.1ZM269,62.19a7,7,0,0,1-5,2.12h-.13c-7.19,0-12.73-8.58-13.8-21.36-.21-2.63-1-15.82,5-16.89a7,7,0,0,1,1.28-.12c6,0,11,8.14,16,26.05a5.6,5.6,0,0,1,.14,1.51A12.22,12.22,0,0,1,269,62.19Zm-37.1,10h-.1a5.62,5.62,0,0,0-5.7,5.51c0,3.07,2.95,5.13,5.7,5.13a5.41,5.41,0,0,0,5.52-5.41A5.21,5.21,0,0,0,231.86,72.18Zm-12.2-4.82-.09-.1a15.7,15.7,0,0,0,10.21-4.48c2.85-3,4.24-7.18,4-12.2-.39-11-6.23-22.11-9.37-28.09l-.55-1-.8.25c-1.91.62-4.33,3.41-5.18,6a4,4,0,0,0,.2,3.53c.23.53.48,1.08.74,1.65a53.29,53.29,0,0,1,4.9,15c.6,4.21-.12,7.63-2.08,9.88-1.79,2.06-4.53,3.1-8.16,3.1h-.86c-9.88,0-18.56-11.16-21.71-21.66-1.57-5.4-3.81-9.55-6.86-12.71l-.12-.12-.16-.08c-2.82-1.41-6-1.54-6.89-.28a1.45,1.45,0,0,0,.21,1.92c3.33,4,5.24,11.18,5.24,19.81,0,8-2.74,13.12-7,13.12H159.55c-9.06,0-15.27-4.78-19.54-15a3.31,3.31,0,0,0-2.47-2.31,1.81,1.81,0,0,0-1.72.79c-.64.92-.54,2.37.24,3.92,4.07,9.93,10.21,19.12,27.43,19.15h15.84c7.28,0,12.07-5.2,13-13.77,5.69,9,13.56,13.6,23.44,13.77Zm-2.11,4.82h-.1a5.62,5.62,0,0,0-5.7,5.51c0,3.07,2.95,5.13,5.7,5.13A5.41,5.41,0,0,0,223,77.41,5.21,5.21,0,0,0,217.55,72.18Z"/></g></g></svg>